# xmcd
#
# Track frame offsets:
#	150
#	14927
#	28427
#	39452
#	51977
#	65327
#	77477
#	91052
#	102152
#	116402
#
# Disc length: 1794 seconds
# Revision: 0
# Processed by: cddbd v1.5.2PL0 Copyright (c) Steve Scherf et al.
# Submitted via: dBpowerAMP V12.0
#
DISCID=7f07000a
DTITLE=Louisiana Grass - Tribute to Bill Grant and Delia Bell
DYEAR=1900
DGENRE=Bluegrass
TTITLE0=Dreaming
TTITLE1=I'll Break Out Again Tonight
TTITLE2=It'll Be Me
TTITLE3=Louisia
TTITLE4=Stairway To Heaven
TTITLE5=Lonely Violet
TTITLE6=John Henry Jr.
TTITLE7=Thinking Of The Old Days
TTITLE8=Girl In The Blue Velvet Band
TTITLE9=The Wall
EXTD=
EXTT0=
EXTT1=
EXTT2=
EXTT3=
EXTT4=
EXTT5=
EXTT6=
EXTT7=
EXTT8=
EXTT9=
PLAYORDER=
